# This file uses centimeters as units for non-parametric coordinates.

mtllib Bouteille_lp.mtl
g default
v 0.655942 9.628641 -0.213129
v 0.557978 9.628641 -0.405395
v 0.405395 9.628641 -0.557978
v 0.213129 9.628641 -0.655942
v 0.000000 9.628641 -0.689698
v -0.213129 9.628641 -0.655942
v -0.405395 9.628641 -0.557978
v -0.557978 9.628641 -0.405394
v -0.655942 9.628641 -0.213128
v -0.689698 9.628641 0.000000
v -0.655942 9.628641 0.213128
v -0.557978 9.628641 0.405394
v -0.405394 9.628641 0.557978
v -0.213128 9.628641 0.655942
v -0.000000 9.628641 0.689698
v 0.213128 9.628641 0.655942
v 0.405394 9.628641 0.557978
v 0.557977 9.628641 0.405394
v 0.655942 9.628641 0.213128
v 0.689698 9.628641 0.000000
v 0.655942 10.445984 -0.213129
v 0.557978 10.445984 -0.405395
v 0.405395 10.445984 -0.557978
v 0.213129 10.445984 -0.655942
v 0.000000 10.445984 -0.689698
v -0.213129 10.445984 -0.655942
v -0.405395 10.445984 -0.557978
v -0.557978 10.445984 -0.405394
v -0.655942 10.445984 -0.213128
v -0.689698 10.445984 0.000000
v -0.655942 10.445984 0.213128
v -0.557978 10.445984 0.405394
v -0.405394 10.445984 0.557978
v -0.213128 10.445984 0.655942
v -0.000000 10.445984 0.689698
v 0.213128 10.445984 0.655942
v 0.405394 10.445984 0.557978
v 0.557977 10.445984 0.405394
v 0.655942 10.445984 0.213128
v 0.689698 10.445984 0.000000
v 1.010944 0.510664 -1.751005
v -1.010943 0.510664 -1.751006
v -2.021887 0.510664 -0.000000
v -1.010944 0.510664 1.751006
v 1.010943 0.510664 1.751006
v 2.021887 0.510664 0.000000
v 1.010944 9.911840 -1.751005
v -1.010943 9.911840 -1.751006
v -2.021887 9.911840 -0.000000
v -1.010944 9.911840 1.751006
v 1.010943 9.911840 1.751006
v 2.021887 9.911840 0.000000
v 1.694707 -0.008738 -0.000000
v 0.847354 -0.008738 -1.467659
v 0.847353 -0.008738 1.467659
v -0.847354 -0.008738 1.467659
v -1.694707 -0.008738 -0.000000
v -0.847353 -0.008738 -1.467659
v 0.892906 9.911840 -1.546558
v -0.892905 9.911840 -1.546558
v -1.785811 9.911840 -0.000000
v -0.892906 9.911840 1.546558
v 0.892905 9.911840 1.546558
v 1.785811 9.911840 -0.000000
v 0.892906 9.708237 -1.546558
v -0.892905 9.708237 -1.546558
v -1.785811 9.708237 -0.000000
v -0.892906 9.708237 1.546558
v 0.892905 9.708237 1.546558
v 1.785811 9.708237 -0.000000
v -2.021887 7.779669 -0.000000
v -1.010943 7.779669 -1.751006
v 1.010944 7.779669 -1.751005
v 2.021887 7.779669 0.000000
v 1.010943 7.779669 1.751006
v -1.010944 7.779669 1.751006
v -2.021887 2.802590 -0.000000
v -1.010943 2.802590 -1.751006
v 1.010944 2.802590 -1.751005
v 2.021887 2.802590 0.000000
v 1.010943 2.802590 1.751006
v -1.010944 2.802590 1.751006
v -1.887020 3.071483 -0.000000
v -0.943510 3.071483 -1.634207
v -1.887020 7.510777 -0.000000
v -0.943510 7.510777 -1.634207
v 0.943511 3.071483 -1.634207
v 0.943511 7.510777 -1.634207
v 1.887020 3.071483 0.000000
v 1.887020 7.510777 0.000000
v 0.943510 3.071483 1.634207
v 0.943510 7.510777 1.634207
v -0.943510 3.071483 1.634207
v -0.943510 7.510777 1.634207
vt 0.880169 0.229119
vt 0.879980 0.213906
vt 0.937606 0.213190
vt 0.937795 0.228403
vt 0.879791 0.198692
vt 0.937417 0.197976
vt 0.880358 0.244333
vt 0.937984 0.243617
vt 0.880547 0.259547
vt 0.938173 0.258831
vt 0.880736 0.274761
vt 0.938362 0.274045
vt 0.880925 0.289974
vt 0.938551 0.289258
vt 0.934463 0.365406
vt 0.934403 0.350191
vt 0.992033 0.349964
vt 0.992093 0.365179
vt 0.934343 0.334976
vt 0.991973 0.334750
vt 0.934523 0.380621
vt 0.992153 0.380394
vt 0.934283 0.319762
vt 0.991913 0.319535
vt 0.934223 0.304547
vt 0.991854 0.304320
vt 0.934164 0.289332
vt 0.991794 0.289105
vt 0.144751 0.057669
vt 0.286615 0.046722
vt 0.286672 0.214160
vt 0.148336 0.213016
vt 0.145113 0.016656
vt 0.268956 0.004885
vt 0.280596 0.234972
vt 0.148159 0.233312
vt 0.008502 0.047477
vt 0.004883 0.216038
vt 0.025236 0.006490
vt 0.284364 0.543895
vt 0.149306 0.550871
vt 0.011723 0.237012
vt 0.290843 0.564232
vt 0.149491 0.571726
vt 0.016668 0.546639
vt 0.296329 0.714744
vt 0.152578 0.721092
vt 0.010572 0.566853
vt 0.006811 0.719598
vt 0.300714 0.046584
vt 0.436928 0.057241
vt 0.439981 0.212600
vt 0.296519 0.215132
vt 0.317588 0.005655
vt 0.437430 0.016231
vt 0.578828 0.046780
vt 0.578312 0.214217
vt 0.439735 0.232895
vt 0.303287 0.236129
vt 0.561313 0.004883
vt 0.572166 0.235008
vt 0.439796 0.550457
vt 0.307174 0.545771
vt 0.574877 0.543943
vt 0.439910 0.571312
vt 0.301008 0.565964
vt 0.581287 0.564302
vt 0.442485 0.720687
vt 0.296725 0.718695
vt 0.586257 0.714831
vt 0.928747 0.289477
vt 0.929841 0.415389
vt 0.915486 0.415514
vt 0.914392 0.289601
vt 0.930935 0.541301
vt 0.916579 0.541426
vt 0.908975 0.289722
vt 0.910069 0.415634
vt 0.895714 0.415759
vt 0.894620 0.289847
vt 0.911163 0.541547
vt 0.896808 0.541671
vt 0.989500 0.134969
vt 0.991880 0.149996
vt 0.989500 0.165024
vt 0.982593 0.178580
vt 0.971834 0.189339
vt 0.958278 0.196246
vt 0.943250 0.198627
vt 0.928222 0.196246
vt 0.914666 0.189339
vt 0.903907 0.178580
vt 0.897000 0.165024
vt 0.894620 0.149996
vt 0.897000 0.134969
vt 0.903907 0.121412
vt 0.914666 0.110653
vt 0.928222 0.103746
vt 0.943250 0.101366
vt 0.958278 0.103746
vt 0.971834 0.110653
vt 0.982593 0.121412
vt 0.979614 0.068546
vt 0.972707 0.082102
vt 0.961948 0.092861
vt 0.948392 0.099769
vt 0.933364 0.102149
vt 0.918337 0.099769
vt 0.904780 0.092861
vt 0.894021 0.082102
vt 0.887114 0.068546
vt 0.884734 0.053518
vt 0.887114 0.038491
vt 0.894021 0.024934
vt 0.904780 0.014175
vt 0.918337 0.007268
vt 0.933364 0.004888
vt 0.948392 0.007268
vt 0.961948 0.014175
vt 0.972707 0.024934
vt 0.979614 0.038491
vt 0.981995 0.053518
vt 0.410207 0.777703
vt 0.513692 0.717957
vt 0.617176 0.777704
vt 0.617176 0.897197
vt 0.513692 0.956943
vt 0.410207 0.897197
vt 0.395982 0.778195
vt 0.395982 0.904112
vt 0.286935 0.967070
vt 0.177887 0.904112
vt 0.177887 0.778195
vt 0.286934 0.715236
vt 0.864738 0.781273
vt 0.864738 0.923836
vt 0.850323 0.915513
vt 0.850323 0.789596
vt 0.741275 0.995117
vt 0.741275 0.978472
vt 0.741276 0.709992
vt 0.741276 0.726638
vt 0.617813 0.923836
vt 0.632228 0.915513
vt 0.617813 0.781273
vt 0.632228 0.789596
vt 0.990513 0.656193
vt 0.975298 0.656308
vt 0.974864 0.598679
vt 0.990079 0.598564
vt 0.960084 0.656422
vt 0.959650 0.598793
vt 0.944869 0.656537
vt 0.944435 0.598908
vt 0.929655 0.656651
vt 0.929221 0.599023
vt 0.929221 0.541353
vt 0.944435 0.541238
vt 0.944869 0.598867
vt 0.929655 0.598982
vt 0.959650 0.541124
vt 0.960084 0.598753
vt 0.974864 0.541009
vt 0.975298 0.598638
vt 0.990079 0.540895
vt 0.990513 0.598524
vt 0.879007 0.671470
vt 0.736444 0.671185
vt 0.736768 0.509582
vt 0.879330 0.509867
vt 0.867388 0.713165
vt 0.747895 0.712926
vt 0.741564 0.488921
vt 0.874617 0.489187
vt 0.742190 0.175908
vt 0.875243 0.176175
vt 0.737477 0.155228
vt 0.880039 0.155513
vt 0.737777 0.004890
vt 0.880340 0.005175
vt 0.589488 0.046584
vt 0.732050 0.046869
vt 0.731727 0.208472
vt 0.589165 0.208187
vt 0.601106 0.004889
vt 0.720599 0.005129
vt 0.726931 0.229133
vt 0.593878 0.228867
vt 0.726305 0.542146
vt 0.593252 0.541880
vt 0.731018 0.562826
vt 0.588456 0.562541
vt 0.730717 0.713165
vt 0.588155 0.712879
vt 0.592625 0.225613
vt 0.592625 0.351530
vt 0.578269 0.351530
vt 0.578269 0.225613
vt 0.286633 0.356502
vt 0.286633 0.230585
vt 0.300989 0.230585
vt 0.300989 0.356502
vn 0.124159 -0.991442 -0.040342
vn 0.105615 -0.991442 -0.076734
vn 0.105615 0.991442 -0.076734
vn 0.124159 0.991442 -0.040341
vn 0.076734 -0.991442 -0.105616
vn 0.076734 0.991442 -0.105615
vn 0.040342 -0.991442 -0.124159
vn 0.040342 0.991442 -0.124158
vn 0.000000 -0.991442 -0.130548
vn 0.000000 0.991442 -0.130548
vn -0.040342 -0.991442 -0.124159
vn -0.040342 0.991442 -0.124158
vn -0.076734 -0.991442 -0.105616
vn -0.076734 0.991442 -0.105615
vn -0.105615 -0.991442 -0.076734
vn -0.105615 0.991442 -0.076734
vn -0.124158 -0.991442 -0.040342
vn -0.124158 0.991442 -0.040341
vn -0.130548 -0.991442 -0.000000
vn -0.130548 0.991442 0.000000
vn -0.124158 -0.991442 0.040341
vn -0.124158 0.991442 0.040342
vn -0.105615 -0.991442 0.076734
vn -0.105615 0.991442 0.076735
vn -0.076734 -0.991442 0.105615
vn -0.076734 0.991442 0.105616
vn -0.040342 -0.991442 0.124158
vn -0.040342 0.991442 0.124159
vn 0.000000 -0.991442 0.130548
vn 0.000000 0.991442 0.130548
vn 0.040341 -0.991442 0.124158
vn 0.040341 0.991442 0.124159
vn 0.076734 -0.991442 0.105615
vn 0.076734 0.991442 0.105616
vn 0.105615 -0.991442 0.076734
vn 0.105615 0.991442 0.076735
vn 0.124158 -0.991442 0.040341
vn 0.124158 0.991442 0.040342
vn 0.130548 -0.991442 -0.000000
vn 0.130548 0.991442 0.000000
vn 0.497866 -0.092287 -0.862330
vn -0.497866 -0.092287 -0.862330
vn -0.499508 0.044342 -0.865174
vn 0.499508 0.044342 -0.865174
vn -0.995733 -0.092287 -0.000000
vn -0.999017 0.044342 -0.000000
vn -0.497866 -0.092287 0.862330
vn -0.499508 0.044342 0.865174
vn 0.497866 -0.092287 0.862330
vn 0.499508 0.044342 0.865174
vn 0.995733 -0.092287 0.000000
vn 0.999017 0.044342 0.000000
vn 0.086270 -0.985003 -0.149423
vn 0.172539 -0.985003 0.000000
vn 0.086270 -0.985003 0.149423
vn -0.086270 -0.985003 0.149423
vn -0.172539 -0.985003 -0.000000
vn -0.086270 -0.985003 -0.149423
vn -0.028457 0.998379 0.049288
vn 0.028457 0.998379 0.049288
vn 0.056914 0.998379 -0.000000
vn 0.028457 0.998379 -0.049289
vn -0.028457 0.998379 -0.049289
vn -0.056914 0.998379 -0.000000
vn 0.498797 0.069337 -0.863941
vn -0.498796 0.069337 -0.863941
vn 0.259361 0.854942 0.449229
vn -0.259361 0.854942 0.449228
vn -0.997593 0.069337 -0.000000
vn 0.518723 0.854943 -0.000000
vn -0.498797 0.069337 0.863941
vn 0.259361 0.854942 -0.449229
vn 0.498797 0.069337 0.863941
vn -0.259361 0.854942 -0.449227
vn 0.997593 0.069337 0.000000
vn -0.518723 0.854943 0.000000
vn -0.499439 -0.047344 -0.865055
vn -0.998879 -0.047344 -0.000000
vn 0.499439 -0.047344 -0.865054
vn 0.998879 -0.047344 0.000000
vn 0.499439 -0.047344 0.865054
vn -0.499439 -0.047344 0.865054
vn -0.499718 0.033566 -0.865537
vn -0.999437 0.033566 -0.000000
vn -0.999437 -0.033566 -0.000000
vn -0.499718 -0.033566 -0.865538
vn 0.499718 0.033566 -0.865537
vn 0.499718 -0.033566 -0.865537
vn 0.999437 0.033566 0.000000
vn 0.999437 -0.033566 0.000000
vn 0.499718 0.033566 0.865537
vn 0.499718 -0.033566 0.865537
vn -0.499718 0.033566 0.865537
vn -0.499718 -0.033566 0.865537
g Bouteille_lp
usemtl initialShadingGroup
f 1/1/1 2/2/2 22/3/3 21/4/4
f 2/2/2 3/5/5 23/6/6 22/3/3
f 3/147/5 4/148/7 24/149/8 23/150/6
f 4/148/7 5/151/9 25/152/10 24/149/8
f 5/151/9 6/153/11 26/154/12 25/152/10
f 6/153/11 7/155/13 27/156/14 26/154/12
f 7/21/13 8/15/15 28/18/16 27/22/14
f 8/15/15 9/16/17 29/17/18 28/18/16
f 9/16/17 10/19/19 30/20/20 29/17/18
f 10/19/19 11/23/21 31/24/22 30/20/20
f 11/23/21 12/25/23 32/26/24 31/24/22
f 12/25/23 13/27/25 33/28/26 32/26/24
f 13/157/25 14/158/27 34/159/28 33/160/26
f 14/158/27 15/161/29 35/162/30 34/159/28
f 15/161/29 16/163/31 36/164/32 35/162/30
f 16/163/31 17/165/33 37/166/34 36/164/32
f 17/13/33 18/11/35 38/12/36 37/14/34
f 18/11/35 19/9/37 39/10/38 38/12/36
f 19/9/37 20/7/39 40/8/40 39/10/38
f 20/7/39 1/1/1 21/4/4 40/8/40
f 1/83/1 20/84/39 19/85/37 18/86/35 17/87/33 16/88/31 15/89/29 14/90/27 13/91/25 12/92/23 11/93/21 10/94/19 9/95/17 8/96/15 7/97/13 6/98/11 5/99/9 4/100/7 3/101/5 2/102/2
f 21/103/4 22/104/3 23/105/6 24/106/8 25/107/10 26/108/12 27/109/14 28/110/16 29/111/18 30/112/20 31/113/22 32/114/24 33/115/26 34/116/28 35/117/30 36/118/32 37/119/34 38/120/36 39/121/38 40/122/40
f 41/167/41 42/168/42 78/169/43 79/170/44
f 42/37/42 43/29/45 77/32/46 78/38/43
f 43/29/45 44/30/47 82/31/48 77/32/46
f 44/181/47 45/182/49 81/183/50 82/184/48
f 45/50/49 46/51/51 80/52/52 81/53/50
f 46/51/51 41/56/41 79/57/44 80/52/52
f 54/123/53 53/124/54 55/125/55 56/126/56 57/127/57 58/128/58
f 65/129/59 66/130/60 67/131/61 68/132/62 69/133/63 70/134/64
f 41/56/41 46/51/51 53/55/54 54/60/53
f 46/51/51 45/50/49 55/54/55 53/55/54
f 45/182/49 44/181/47 56/185/56 55/186/55
f 44/30/47 43/29/45 57/33/57 56/34/56
f 43/29/45 42/37/42 58/39/58 57/33/57
f 42/168/42 41/167/41 54/171/53 58/172/58
f 47/135/65 48/136/66 60/137/67 59/138/68
f 48/136/66 49/139/69 61/140/70 60/137/67
f 49/139/69 50/143/71 62/144/72 61/140/70
f 50/143/71 51/145/73 63/146/74 62/144/72
f 51/145/73 52/141/75 64/142/76 63/146/74
f 52/141/75 47/135/65 59/138/68 64/142/76
f 59/195/68 60/196/67 66/197/60 65/198/59
f 60/71/67 61/72/70 67/73/61 66/74/60
f 61/72/70 62/75/72 68/76/62 67/73/61
f 62/199/72 63/200/74 69/201/63 68/202/62
f 63/77/74 64/78/76 70/79/64 69/80/63
f 64/78/76 59/81/68 65/82/59 70/79/64
f 72/48/77 71/44/78 49/47/69 48/49/66
f 73/178/79 72/177/77 48/179/66 47/180/65
f 74/65/80 73/67/79 47/70/65 52/68/75
f 75/66/81 74/65/80 52/68/75 51/69/73
f 76/192/82 75/191/81 51/193/73 50/194/71
f 71/44/78 76/43/82 50/46/71 49/47/69
f 84/42/83 83/36/84 85/41/85 86/45/86
f 87/174/87 84/173/83 86/175/86 88/176/88
f 89/58/89 87/61/87 88/64/88 90/62/90
f 91/59/91 89/58/89 90/62/90 92/63/92
f 93/188/93 91/187/91 92/189/92 94/190/94
f 83/36/84 93/35/93 94/40/94 85/41/85
f 78/38/43 77/32/46 83/36/84 84/42/83
f 71/44/78 72/48/77 86/45/86 85/41/85
f 79/170/44 78/169/43 84/173/83 87/174/87
f 72/177/77 73/178/79 88/176/88 86/175/86
f 80/52/52 79/57/44 87/61/87 89/58/89
f 73/67/79 74/65/80 90/62/90 88/64/88
f 81/53/50 80/52/52 89/58/89 91/59/91
f 74/65/80 75/66/81 92/63/92 90/62/90
f 82/184/48 81/183/50 91/187/91 93/188/93
f 75/191/81 76/192/82 94/190/94 92/189/92
f 77/32/46 82/31/48 93/35/93 83/36/84
f 76/43/82 71/44/78 85/41/85 94/40/94
