# File produced by Open Asset Import Library (http://www.assimp.sf.net)
# (assimp v3.1.267422042)

mtllib etagere.mtl

# vertex positions
v -2.507674 5.048928 -0.706691
v -2.507674 5.048928 -9.509550
v -2.391395 5.048928 -9.509550
v -2.391395 5.048928 -0.706691
v -2.526093 5.107486 -9.509550
v -2.412588 5.107486 -9.509550
v -2.412588 5.107486 -9.631884
v -2.526093 5.107486 -9.631884
v -2.507674 5.048928 -9.631884
v -2.391395 5.048928 -9.631884
v -3.279780 5.107486 -9.509550
v -2.563096 5.107486 -9.509550
v -2.563096 5.107486 -9.631884
v -3.279780 5.107486 -9.631884
v -3.279780 5.048928 -0.706691
v -3.279780 5.048928 -9.509550
v -2.555498 5.048928 -9.509550
v -2.555498 5.048928 -0.706691
v -3.279780 5.048928 -9.631884
v -2.555498 5.048928 -9.631884
v -2.526093 5.345795 -9.509550
v -2.563096 5.323876 -9.509550
v -2.526093 5.345795 -9.631884
v -2.563096 5.323876 -9.631884
v -2.572093 5.399679 -9.509550
v -2.599944 5.365482 -9.509550
v -2.572093 5.399679 -9.631884
v -2.599944 5.365482 -9.631884
v -3.274799 5.644836 -9.509550
v -3.275543 5.610639 -9.509550
v -3.274799 5.644836 -9.631884
v -3.275543 5.610639 -9.631884
v -3.275543 5.572060 -9.457937
v -3.274799 5.683416 -9.457937
v -3.299456 5.683416 -9.457937
v -3.300201 5.572060 -9.457937
v -3.274799 5.683416 -9.683498
v -3.299456 5.683416 -9.683498
v -3.275543 5.572060 -9.683498
v -3.300201 5.572060 -9.683498
v -2.526093 5.107486 -0.706691
v -2.526093 5.107486 -0.584358
v -2.412588 5.107486 -0.584358
v -2.412588 5.107486 -0.706691
v -2.507674 5.048928 -0.584358
v -2.391395 5.048928 -0.584358
v -3.279780 5.107486 -0.706691
v -3.279780 5.107486 -0.584358
v -2.563096 5.107486 -0.584358
v -2.563096 5.107486 -0.706691
v -3.279780 5.048928 -0.584358
v -2.555498 5.048928 -0.584358
v -2.563096 5.323876 -0.706691
v -2.526093 5.345795 -0.706691
v -2.526093 5.345795 -0.584358
v -2.563096 5.323876 -0.584358
v -2.599944 5.365482 -0.706691
v -2.572093 5.399679 -0.706691
v -2.572093 5.399679 -0.584358
v -2.599944 5.365482 -0.584358
v -3.275543 5.610639 -0.706691
v -3.274799 5.644836 -0.706691
v -3.274799 5.644836 -0.584358
v -3.275543 5.610639 -0.584358
v -3.275543 5.572060 -0.758305
v -3.300201 5.572060 -0.758305
v -3.299456 5.683416 -0.758305
v -3.274799 5.683416 -0.758305
v -3.299456 5.683416 -0.532744
v -3.274799 5.683416 -0.532744
v -3.300201 5.572060 -0.532744
v -3.275543 5.572060 -0.532744
v -3.279780 5.102726 -9.722259
v -3.279780 5.107486 -9.717498
v -2.563096 5.107486 -9.717405
v -2.561752 5.102821 -9.722259
v -2.526093 5.107486 -9.717388
v -2.524631 5.102838 -9.722259
v -2.412588 5.107486 -9.716571
v -2.410530 5.101799 -9.722259
v -2.319142 5.241252 -9.614740
v -2.312540 5.241498 -9.617974
v -2.319044 5.241391 -9.533081
v -2.312459 5.241387 -9.531140
v -2.352293 5.200677 -9.466831
v -2.345618 5.200935 -9.464780
v -2.352293 5.200677 -0.749410
v -2.345618 5.200935 -0.751461
v -2.410530 5.101799 -0.493983
v -2.412588 5.107486 -0.499670
v -2.526093 5.107486 -0.498854
v -2.524631 5.102838 -0.493983
v -2.312540 5.241498 -0.598268
v -2.319142 5.241252 -0.601502
v -2.563096 5.107486 -0.498837
v -2.561752 5.102821 -0.493983
v -2.312459 5.241387 -0.685102
v -2.319044 5.241391 -0.683160
v -3.279780 5.107486 -0.498743
v -3.279780 5.102726 -0.493983
v -3.279780 5.048928 -9.711520
v -3.279780 5.059668 -9.722259
v -2.549264 5.059481 -9.722259
v -2.547345 5.048928 -9.711335
v -2.510971 5.059412 -9.722259
v -2.507674 5.048928 -9.711269
v -2.391395 5.048928 -9.711686
v -2.395221 5.059501 -9.722259
v -2.287117 5.206585 -9.617974
v -2.286924 5.191085 -9.612464
v -2.286963 5.206373 -9.531140
v -2.287069 5.190888 -9.534479
v -2.320160 5.165974 -9.464780
v -2.319957 5.150691 -9.468008
v -2.320160 5.165974 -0.751461
v -2.320094 5.150496 -0.748150
v -2.391395 5.048928 -0.504556
v -2.395221 5.059501 -0.493983
v -2.510971 5.059412 -0.493983
v -2.507674 5.048928 -0.504973
v -2.287379 5.190465 -0.604227
v -2.287117 5.206585 -0.598268
v -2.549264 5.059481 -0.493983
v -2.547345 5.048928 -0.504907
v -2.286924 5.191085 -0.681848
v -2.286963 5.206373 -0.685102
v -3.279780 5.059668 -0.493983
v -3.279780 5.048928 -0.504722

# UV coordinates
vt 0.914259 0.184254
vt 0.190936 0.901791
vt 0.181337 0.892570
vt 0.905218 0.174639
vt 0.144175 0.858713
vt 0.154967 0.868484
vt 0.145200 0.880845
vt 0.133394 0.880362
vt 0.182700 0.914427
vt 0.174542 0.905620
vt 0.082747 0.795628
vt 0.140883 0.855391
vt 0.124933 0.861386
vt 0.073054 0.804353
vt 0.977932 0.246818
vt 0.253756 0.963464
vt 0.195215 0.905735
vt 0.918190 0.188596
vt 0.245159 0.974366
vt 0.186563 0.917697
vt 0.102408 0.877361
vt 0.101343 0.873432
vt 0.105837 0.890248
vt 0.131084 0.886804
vt 0.107974 0.894589
vt 0.135592 0.900883
vt 0.112930 0.908834
vt 0.092910 0.880082
vt 0.089226 0.876210
vt 0.099106 0.893340
vt 0.100267 0.898452
vt 0.106937 0.911424
vt 0.013957 0.923194
vt 0.013019 0.918729
vt 0.021158 0.936600
vt 0.025159 0.940067
vt 0.033578 0.952223
vt 0.005730 0.911886
vt 0.007404 0.923348
vt 0.004593 0.924218
vt 0.002807 0.912919
vt 0.013822 0.940741
vt 0.011342 0.941920
vt 0.020567 0.944762
vt 0.018757 0.947131
vt 0.012022 0.942903
vt 0.034440 0.959739
vt 0.032450 0.961568
vt 0.872444 0.136977
vt 0.898591 0.130004
vt 0.895527 0.140446
vt 0.881614 0.147881
vt 0.926486 0.175999
vt 0.918058 0.167744
vt 0.808819 0.072215
vt 0.817789 0.061479
vt 0.871284 0.112826
vt 0.869316 0.133627
vt 0.988198 0.236829
vt 0.929973 0.179628
vt 0.898731 0.101816
vt 0.902939 0.103094
vt 0.916504 0.109011
vt 0.920117 0.112362
vt 0.905538 0.129503
vt 0.890226 0.093253
vt 0.904537 0.092553
vt 0.908322 0.096075
vt 0.921739 0.102741
vt 0.927010 0.103856
vt 0.892298 0.085227
vt 0.947971 0.015888
vt 0.952744 0.016980
vt 0.965758 0.024721
vt 0.968812 0.028210
vt 0.934283 0.008886
vt 0.949183 0.009342
vt 0.949953 0.006378
vt 0.958209 0.007661
vt 0.956893 0.010428
vt 0.973969 0.019367
vt 0.971892 0.021647
vt 0.980557 0.028983
vt 0.978369 0.031052
vt 0.930465 0.002599
vt 0.931492 0.000000
vt 0.234925 0.986019
vt 0.234442 0.986588
vt 0.176012 0.931905
vt 0.176416 0.931159
vt 0.172137 0.929725
vt 0.172528 0.928875
vt 0.161383 0.916403
vt 0.162309 0.916224
vt 0.156169 0.892972
vt 0.156959 0.892379
vt 0.156989 0.891308
vt 0.162411 0.882829
vt 0.162851 0.883205
vt 0.168230 0.873877
vt 0.169034 0.874275
vt 0.886898 0.161867
vt 0.887255 0.162642
vt 0.927490 0.154942
vt 0.927612 0.154001
vt 0.941152 0.164699
vt 0.940313 0.165082
vt 0.903871 0.152189
vt 0.904300 0.151355
vt 0.943155 0.168424
vt 0.942451 0.168878
vt 0.902850 0.152237
vt 0.895117 0.157375
vt 0.894779 0.156917
vt 0.999621 0.224700
vt 0.999105 0.225240
vt 0.143613 0.890733
vt 0.135994 0.891957
vt 0.115384 0.865317
vt 0.065913 0.810817
vt 0.133695 0.894329
vt 0.906179 0.141078
vt 0.910491 0.134869
vt 0.824329 0.054264
vt 0.878087 0.105541
vt 0.912896 0.131725
vt 0.239199 0.981097
vt 0.238067 0.982375
vt 0.178755 0.926120
vt 0.179813 0.924507
vt 0.175111 0.923812
vt 0.176358 0.922109
vt 0.168743 0.912964
vt 0.167273 0.914047
vt 0.161147 0.893105
vt 0.162742 0.893230
vt 0.166378 0.884588
vt 0.167469 0.885433
vt 0.173212 0.877951
vt 0.174407 0.879491
vt 0.890651 0.166496
vt 0.892148 0.167670
vt 0.924759 0.161605
vt 0.925702 0.160062
vt 0.935530 0.167673
vt 0.933930 0.168964
vt 0.905047 0.157407
vt 0.904807 0.155905
vt 0.937650 0.171506
vt 0.936132 0.172629
vt 0.897653 0.161630
vt 0.896892 0.160540
vt 0.995761 0.228790
vt 0.994575 0.230080

# vertex normals
vn 0.000000 -1.000000 0.000000
vn 0.000000 1.000000 0.000000
vn 0.000000 0.000000 1.000000
vn 1.000000 0.000000 0.000000
vn 0.000000 0.000000 -1.000000
vn -1.000000 0.000000 0.000000
vn 0.760556 0.649272 0.000000
vn -0.748619 -0.663000 0.000000
vn 0.329405 0.944189 0.000000
vn -0.341109 -0.940024 0.000000
vn 0.999948 -0.010227 0.000000
vn 0.760558 0.649270 0.000000
vn -0.000005 0.000000 1.000000
vn -0.748618 -0.663001 0.000000
vn -0.000001 0.000000 -1.000000
vn 0.000003 0.000000 1.000000
vn -0.341110 -0.940023 0.000000
vn 1.000000 -0.000001 0.000000
vn -0.000002 0.714126 -0.700017
vn -0.000002 0.714522 -0.699613
vn -0.000002 0.714534 -0.699600
vn 0.004429 0.717170 -0.696885
vn 0.004565 0.717012 -0.697046
vn -0.193950 0.701978 -0.685281
vn -0.010469 0.715575 -0.698458
vn -0.260681 0.690807 -0.674412
vn -0.018289 0.999833 -0.000147
vn -0.084893 0.971421 0.221664
vn -0.097562 0.959508 0.264248
vn -0.039447 0.999216 0.003291
vn -0.040001 0.999185 0.005395
vn -0.039447 0.999216 -0.003291
vn -0.040001 0.999185 -0.005395
vn -0.010473 0.715575 0.698458
vn -0.193987 0.701973 0.685276
vn 0.004426 0.717170 0.696885
vn 0.004562 0.717012 0.697046
vn -0.260730 0.690798 0.674403
vn -0.000002 0.714522 0.699613
vn -0.000002 0.714534 0.699600
vn -0.018289 0.999833 0.000147
vn -0.097573 0.959506 -0.264248
vn -0.084903 0.971420 -0.221664
vn -0.000001 0.714126 0.700017
vn -0.839099 0.543979 0.000610
vn -0.839099 0.543979 -0.000610
vn -0.839320 0.543637 -0.000336
vn -0.839320 0.543637 0.000336
vn -0.819780 0.572679 0.000001
vn -0.820641 0.571337 -0.011069
vn -0.819932 0.572458 -0.001868
vn -0.819779 0.572679 0.000001
vn -0.819780 0.572678 -0.000001
vn -0.819933 0.572457 0.001868
vn -0.820641 0.571337 0.011069
vn -0.000003 -0.713199 -0.700962
vn -0.000005 -0.713603 -0.700550
vn -0.000005 -0.713623 -0.700530
vn -0.000739 -0.717139 -0.696930
vn -0.000749 -0.717078 -0.696992
vn 0.810675 -0.211731 -0.545871
vn -0.000979 -0.715632 -0.698477
vn 0.999996 0.002799 -0.000045
vn 0.999660 -0.002727 0.025937
vn 0.960674 -0.055185 0.272141
vn 0.999949 0.007124 0.007179
vn 0.999962 0.008684 0.000280
vn 0.999949 0.007122 -0.007195
vn 0.999962 0.008684 -0.000263
vn -0.000978 -0.715632 0.698477
vn -0.000739 -0.717139 0.696930
vn -0.000749 -0.717078 0.696992
vn 0.815678 -0.221969 0.534228
vn -0.000006 -0.713603 0.700550
vn -0.000006 -0.713623 0.700530
vn 0.999966 -0.007421 0.003687
vn 0.963910 -0.056582 -0.260147
vn 0.999674 -0.012300 -0.022353
vn -0.000003 -0.713199 0.700962
vn 0.805908 -0.592040 0.001265
vn 0.806429 -0.591280 0.007769
vn 0.805802 -0.592184 0.000001
vn 0.818156 -0.574997 0.000404
vn 0.818294 -0.574800 0.000221
vn 0.805923 -0.592019 -0.001420
vn 0.805806 -0.592180 -0.000001
vn 0.806428 -0.591280 -0.007792
vn 0.818155 -0.574997 -0.000404
vn 0.818294 -0.574800 -0.000221
vn 0.487119 0.256974 -0.834673
vn 0.808383 0.588656 0.000001
vn 0.642746 0.468038 0.606479
vn 0.642747 0.468038 0.606479
vn 0.000004 0.000000 1.000000
vn 0.000001 0.000000 1.000000
vn 0.487116 0.256975 0.834674
vn 0.808383 0.588657 -0.000001
vn 0.808383 0.588656 -0.000001
vn 0.642750 0.468037 -0.606477
vn -0.000001 0.000000 1.000000
vn 0.808386 0.588653 0.000000

# Mesh
g pCube505
usemtl initialShadingGroup
f 4/4/1 1/1/1 2/2/1
f 2/2/1 3/3/1 4/4/1
f 8/8/2 5/5/2 6/6/2
f 6/6/2 7/7/2 8/8/2
f 2/2/1 9/9/1 10/10/1
f 10/10/1 3/3/1 2/2/1
f 14/14/2 11/11/2 12/12/2
f 12/12/2 13/13/2 14/14/2
f 18/18/1 15/15/1 16/16/1
f 16/16/1 17/17/1 18/18/1
f 16/16/1 19/19/1 20/20/1
f 20/20/1 17/17/1 16/16/1
f 1/1/1 18/18/1 17/17/1
f 17/17/1 2/2/1 1/1/1
f 17/17/1 20/20/1 9/9/1
f 9/9/1 2/2/1 17/17/1
f 22/22/3 12/12/3 5/5/3
f 5/5/3 21/21/3 22/22/3
f 21/21/4 5/5/4 8/8/4
f 8/8/4 23/23/4 21/21/4
f 23/23/5 8/8/5 13/24/5
f 13/24/5 24/25/5 23/23/5
f 24/25/6 13/24/6 12/26/6
f 12/26/6 22/27/6 24/25/6
f 26/29/3 22/22/3 21/21/3
f 21/21/3 25/28/3 26/29/3
f 25/28/7 21/21/7 23/23/7
f 23/23/7 27/30/7 25/28/7
f 27/30/5 23/23/5 24/25/5
f 24/25/5 28/31/5 27/30/5
f 28/31/8 24/25/8 22/27/8
f 22/27/8 26/32/8 28/31/8
f 30/34/3 26/29/3 25/28/3
f 25/28/3 29/33/3 30/34/3
f 29/33/9 25/28/9 27/30/9
f 27/30/9 31/35/9 29/33/9
f 31/35/5 27/30/5 28/31/5
f 28/31/5 32/36/5 31/35/5
f 32/36/10 28/31/10 26/32/10
f 26/32/10 30/37/10 32/36/10
f 36/41/3 33/38/3 34/39/3
f 34/39/3 35/40/3 36/41/3
f 35/40/2 34/39/2 37/42/2
f 37/42/2 38/43/2 35/40/2
f 38/46/5 37/42/5 39/44/5
f 39/44/5 40/45/5 38/46/5
f 40/45/1 39/44/1 33/47/1
f 33/47/1 36/48/1 40/45/1
f 33/38/11 30/34/11 29/33/11
f 29/33/11 34/39/11 33/38/11
f 34/39/4 29/33/4 31/35/4
f 31/35/4 37/42/4 34/39/4
f 37/42/11 31/35/11 32/36/11
f 32/36/11 39/44/11 37/42/11
f 39/44/4 32/36/4 30/37/4
f 30/37/4 33/47/4 39/44/4
f 44/52/2 41/49/2 42/50/2
f 42/50/2 43/51/2 44/52/2
f 46/54/1 45/53/1 1/1/1
f 1/1/1 4/4/1 46/54/1
f 50/58/2 47/55/2 48/56/2
f 48/56/2 49/57/2 50/58/2
f 52/60/1 51/59/1 15/15/1
f 15/15/1 18/18/1 52/60/1
f 45/53/1 52/60/1 18/18/1
f 18/18/1 1/1/1 45/53/1
f 41/49/5 50/58/5 53/61/5
f 53/61/5 54/62/5 41/49/5
f 42/50/4 41/49/4 54/62/4
f 54/62/4 55/63/4 42/50/4
f 49/65/3 42/50/3 55/63/3
f 55/63/3 56/64/3 49/65/3
f 50/58/6 49/57/6 56/66/6
f 56/66/6 53/61/6 50/58/6
f 54/62/5 53/61/5 57/67/5
f 57/67/5 58/68/5 54/62/5
f 55/63/12 54/62/12 58/68/12
f 58/68/12 59/69/12 55/63/12
f 56/64/13 55/63/13 59/69/13
f 59/69/13 60/70/13 56/64/13
f 53/61/14 56/66/14 60/71/14
f 60/71/14 57/67/14 53/61/14
f 58/68/15 57/67/15 61/72/15
f 61/72/15 62/73/15 58/68/15
f 59/69/9 58/68/9 62/73/9
f 62/73/9 63/74/9 59/69/9
f 60/70/16 59/69/16 63/74/16
f 63/74/16 64/75/16 60/70/16
f 57/67/17 60/71/17 64/76/17
f 64/76/17 61/72/17 57/67/17
f 68/80/5 65/77/5 66/78/5
f 66/78/5 67/79/5 68/80/5
f 70/82/2 68/80/2 67/79/2
f 67/79/2 69/81/2 70/82/2
f 72/84/3 70/82/3 69/81/3
f 69/81/3 71/83/3 72/84/3
f 65/77/1 72/85/1 71/86/1
f 71/86/1 66/78/1 65/77/1
f 62/73/11 61/72/11 65/77/11
f 65/77/11 68/80/11 62/73/11
f 63/74/18 62/73/18 68/80/18
f 68/80/18 70/82/18 63/74/18
f 64/75/11 63/74/11 70/82/11
f 70/82/11 72/84/11 64/75/11
f 61/72/18 64/76/18 72/85/18
f 72/85/18 65/77/18 61/72/18
f 5/5/2 41/49/2 44/52/2
f 44/52/2 6/6/2 5/5/2
f 12/12/2 11/11/2 47/55/2
f 47/55/2 50/58/2 12/12/2
f 12/12/2 50/58/2 41/49/2
f 41/49/2 5/5/2 12/12/2
f 76/90/21 73/87/19 74/88/19
f 74/88/19 75/89/20 76/90/21
f 78/92/23 76/90/21 75/89/20
f 75/89/20 77/91/22 78/92/23
f 77/91/22 79/93/24 80/94/25
f 80/94/25 78/92/23 77/91/22
f 82/96/26 80/94/25 79/93/24
f 79/93/24 81/95/26 82/96/26
f 84/99/29 82/96/27 81/97/27
f 81/97/27 83/98/28 84/99/29
f 86/101/31 84/99/29 83/98/28
f 83/98/28 85/100/30 86/101/31
f 88/103/33 86/101/31 85/100/30
f 85/100/30 87/102/32 88/103/33
f 92/107/37 89/104/34 90/105/35
f 90/105/35 91/106/36 92/107/37
f 94/109/38 90/105/35 89/104/34
f 89/104/34 93/108/38 94/109/38
f 96/111/40 92/107/37 91/106/36
f 91/106/36 95/110/39 96/111/40
f 98/114/43 94/112/41 93/108/41
f 93/108/41 97/113/42 98/114/43
f 87/102/32 98/114/43 97/113/42
f 97/113/42 88/103/33 87/102/32
f 95/110/39 99/115/44 100/116/44
f 100/116/44 96/111/40 95/110/39
f 44/52/48 87/102/45 85/100/46
f 85/100/46 6/6/47 44/52/48
f 81/97/52 79/117/49 7/7/50
f 7/7/50 83/98/51 81/97/52
f 79/117/2 77/118/2 8/8/2
f 8/8/2 7/7/2 79/117/2
f 83/98/51 7/7/50 6/6/47
f 6/6/47 85/100/46 83/98/51
f 74/120/2 14/14/2 13/13/2
f 13/13/2 75/119/2 74/120/2
f 77/118/2 75/121/2 13/24/2
f 13/24/2 8/8/2 77/118/2
f 43/51/55 90/122/53 94/112/53
f 94/112/53 98/114/54 43/51/55
f 42/50/2 91/123/2 90/122/2
f 90/122/2 43/51/2 42/50/2
f 44/52/48 43/51/55 98/114/54
f 98/114/54 87/102/45 44/52/48
f 49/57/2 48/56/2 99/124/2
f 99/124/2 95/125/2 49/57/2
f 49/65/2 95/126/2 91/123/2
f 91/123/2 42/50/2 49/65/2
f 104/130/58 101/127/56 102/128/56
f 102/128/56 103/129/57 104/130/58
f 106/132/60 104/130/58 103/129/57
f 103/129/57 105/131/59 106/132/60
f 110/136/61 107/133/61 108/134/61
f 108/134/61 109/135/61 110/136/61
f 105/131/59 108/134/62 107/133/62
f 107/133/62 106/132/60 105/131/59
f 112/138/65 110/136/63 109/135/63
f 109/135/63 111/137/64 112/138/65
f 114/140/67 112/138/65 111/137/64
f 111/137/64 113/139/66 114/140/67
f 116/142/69 114/140/67 113/139/66
f 113/139/66 115/141/68 116/142/69
f 120/146/72 117/143/70 118/144/70
f 118/144/70 119/145/71 120/146/72
f 122/148/73 118/144/73 117/143/73
f 117/143/73 121/147/73 122/148/73
f 124/150/75 120/146/72 119/145/71
f 119/145/71 123/149/74 124/150/75
f 126/152/78 122/148/76 121/147/76
f 121/147/76 125/151/77 126/152/78
f 115/141/68 126/152/78 125/151/77
f 125/151/77 116/142/69 115/141/68
f 123/149/74 127/153/79 128/154/79
f 128/154/79 124/150/75 123/149/74
f 9/9/1 106/132/1 107/133/1
f 107/133/1 10/10/1 9/9/1
f 110/136/82 112/138/80 10/10/81
f 10/10/81 107/133/82 110/136/82
f 112/138/80 114/140/83 3/3/84
f 3/3/84 10/10/81 112/138/80
f 19/19/1 101/127/1 104/130/1
f 104/130/1 20/20/1 19/19/1
f 20/20/1 104/130/1 106/132/1
f 106/132/1 9/9/1 20/20/1
f 117/143/1 120/146/1 45/53/1
f 45/53/1 46/54/1 117/143/1
f 46/54/87 125/151/85 121/147/86
f 121/147/86 117/143/86 46/54/87
f 4/4/89 116/142/88 125/151/85
f 125/151/85 46/54/87 4/4/89
f 52/60/1 124/150/1 128/154/1
f 128/154/1 51/59/1 52/60/1
f 120/146/1 124/150/1 52/60/1
f 52/60/1 45/53/1 120/146/1
f 114/140/83 116/142/88 4/4/89
f 4/4/89 3/3/84 114/140/83
f 105/131/5 78/92/5 80/94/5
f 80/94/5 108/134/5 105/131/5
f 109/135/90 108/134/90 80/94/90
f 80/94/90 82/96/90 109/135/90
f 82/96/91 84/99/91 111/137/91
f 111/137/91 109/135/91 82/96/91
f 84/99/93 86/101/92 113/139/93
f 113/139/93 111/137/93 84/99/93
f 102/128/5 73/87/5 76/90/5
f 76/90/5 103/129/5 102/128/5
f 103/129/5 76/90/5 78/92/5
f 78/92/5 105/131/5 103/129/5
f 89/104/95 92/107/94 119/145/16
f 119/145/16 118/144/95 89/104/95
f 89/104/96 118/144/96 122/148/96
f 122/148/96 93/108/96 89/104/96
f 126/152/98 97/113/97 93/108/97
f 93/108/97 122/148/97 126/152/98
f 115/141/99 88/103/99 97/113/99
f 97/113/99 126/152/99 115/141/99
f 123/149/3 96/111/3 100/116/100
f 100/116/100 127/153/100 123/149/3
f 92/107/94 96/111/3 123/149/3
f 123/149/3 119/145/16 92/107/94
f 86/101/101 88/103/101 115/141/101
f 115/141/101 113/139/101 86/101/101
